Coordinates
version=1
nRows=7
nColumns=40
inDegrees=yes

Units are S.I. units (second, meters, Newtons, ...)
Angles are in degrees.

endheader
time	pelvis_tilt	pelvis_list	pelvis_rotation	pelvis_tx	pelvis_ty	pelvis_tz	hip_flexion_r	hip_adduction_r	hip_rotation_r	knee_angle_r	knee_angle_r_beta	ankle_angle_r	subtalar_angle_r	mtp_angle_r	hip_flexion_l	hip_adduction_l	hip_rotation_l	knee_angle_l	knee_angle_l_beta	ankle_angle_l	subtalar_angle_l	mtp_angle_l	lumbar_extension	lumbar_bending	lumbar_rotation	arm_flex_r	arm_add_r	arm_rot_r	elbow_flex_r	pro_sup_r	wrist_flex_r	wrist_dev_r	arm_flex_l	arm_add_l	arm_rot_l	elbow_flex_l	pro_sup_l	wrist_flex_l	wrist_dev_l
     44.22678571	     -6.23588949	     -8.67833402	      1.56145795	      1.05166693	      0.91165468	      0.49502033	     -3.61125638	      8.34516893	    -15.51614838	      6.95292756	      6.95292756	     18.20397706	     14.98057992	     -0.56496532	     36.38919523	    -12.06689095	     -3.86294926	     20.70453336	     20.70453336	      3.17153494	    -11.20273903	     12.64188518	     -9.79744293	      9.05442704	      6.52750392	     47.09541456	    -14.51377064	     -1.26764215	    101.87781184	     44.38326900	      0.00000000	      0.00000000	    -26.52682182	     -9.67390582	     12.38008844	     38.17439018	     44.22537235	      0.00000000	      0.00000000
     44.23857143	     -6.41725137	     -8.53423866	      1.24710902	      1.05304668	      0.91022385	      0.49331643	     -3.64417875	      7.89071944	    -15.14127910	      7.89902984	      7.89902984	     18.90185946	     14.61042135	     -0.61223585	     36.10353891	    -11.80922834	     -3.80966922	     21.35086579	     21.35086579	      1.98930254	    -12.47397811	     11.47341689	     -9.42049543	      8.90537010	      6.40585250	     46.87052279	    -14.27155575	     -1.26195181	    102.45658893	     44.38240751	      0.00000000	      0.00000000	    -26.53154086	     -9.66894092	     12.70800966	     38.26176299	     44.21863606	      0.00000000	      0.00000000
     44.25035714	     -6.54931753	     -8.35257490	      0.94174703	      1.05446456	      0.90914407	      0.49153178	     -3.80032186	      7.39887339	    -14.80001260	      8.69348784	      8.69348784	     19.46188786	     14.46389572	     -0.55577490	     35.81873697	    -11.55435305	     -3.68386711	     22.11828245	     22.11828245	      0.91980973	    -13.54338449	      9.96936609	     -9.12825070	      8.66321079	      6.43518849	     46.42773786	    -14.23630440	     -1.34811441	    102.90538031	     44.39168576	      0.00000000	      0.00000000	    -26.32454978	     -9.69309533	     13.00236486	     38.38398766	     44.22523426	      0.00000000	      0.00000000
     44.26214286	     -6.59468946	     -8.12729678	      0.69418821	      1.05585044	      0.90849870	      0.48950855	     -4.05352418	      6.85378908	    -14.54002623	      9.44177304	      9.44177304	     19.87524540	     14.33813461	     -0.55317563	     35.51299076	    -11.26310781	     -3.54149207	     22.99708102	     22.99708102	      0.36342430	    -14.36588198	      8.88500898	     -8.95405083	      8.40326098	      6.39056640	     45.76503008	    -14.25257130	     -1.43864350	    103.22075615	     44.40245685	      0.00000000	      0.00000000	    -25.90159719	     -9.74575004	     13.19075128	     38.38340257	     44.24340752	      0.00000000	      0.00000000
     44.27392857	     -6.64006148	     -7.87688173	      0.48122680	      1.05714739	      0.90821360	      0.48727669	     -4.21938464	      6.24124861	    -14.33028041	     10.32174693	     10.32174693	     20.19117167	     14.22185087	     -0.64143171	     35.25878750	    -10.93414824	     -3.32899318	     23.93249016	     23.93249016	      0.23049942	    -15.08910197	      8.16059357	     -8.82129062	      8.12817142	      6.33272895	     44.90950347	    -14.34033540	     -1.58313263	    103.52804658	     44.41508705	      0.00000000	      0.00000000	    -25.24584806	     -9.78634877	     13.29789920	     38.27259975	     44.27464941	      0.00000000	      0.00000000
     44.28571429	     -6.67780624	     -7.64042206	      0.29789869	      1.05828052	      0.90822043	      0.48490263	     -4.30897896	      5.61630159	    -14.17999699	     11.31240108	     11.31240108	     20.37794162	     14.09523189	     -0.85379915	     35.08144965	    -10.61832233	     -3.10513022	     24.95857759	     24.95857759	      0.55255153	    -15.66052195	      7.82508774	     -8.72845905	      7.87380562	      6.18539064	     43.96803191	    -14.41964068	     -1.66185273	    103.59026051	     44.42304275	      0.00000000	      0.00000000	    -24.46631961	     -9.83262774	     13.27105255	     38.20887858	     44.30608990	      0.00000000	      0.00000000
     44.29750000	     -6.72719394	     -7.32709195	      0.15352775	      1.05927048	      0.90861175	      0.48228899	     -4.23303340	      4.84231754	    -14.16700539	     12.54872525	     12.54872525	     20.44373423	     14.02436674	     -1.24468555	     34.85318468	    -10.19785872	     -2.93506739	     25.82990144	     25.82990144	      1.15777130	    -16.16170855	      7.84769475	     -8.66775015	      7.56332718	      6.18321165	     42.65770184	    -14.66109873	     -1.91044086	    103.73818805	     44.43803009	      0.00000000	      0.00000000	    -23.35666995	     -9.89298104	     13.13582944	     37.88098193	     44.36299651	      0.00000000	      0.00000000
